<?xml version="1.0" encoding="iso-8859-1"?>
<!-- Generator: Adobe Illustrator 19.0.0, SVG Export Plug-In . SVG Version: 6.00 Build 0)  -->
<svg version="1.1" id="Capa_1" xmlns="http://www.w3.org/2000/svg" xmlns:xlink="http://www.w3.org/1999/xlink" x="0px" y="0px"
	 viewBox="0 0 368 368" style="enable-background:new 0 0 368 368;" xml:space="preserve">
<g>
	<g>
		<path d="M360,160c-4.424,0-8,3.576-8,8v24h-32v-24c0-4.424-3.576-8-8-8h-40v-24c0-4.424-3.576-8-8-8h-40V48h40
			c4.424,0,8-3.576,8-8s-3.576-8-8-8H104c-4.424,0-8,3.576-8,8s3.576,8,8,8h40v80h-40c-4.424,0-8,3.576-8,8v24H56
			c-4.424,0-8,3.576-8,8v24H16v-24c0-4.424-3.576-8-8-8s-8,3.576-8,8v128c0,4.424,3.576,8,8,8s8-3.576,8-8v-24h32v24
			c0,4.424,3.576,8,8,8h40v24c0,4.424,3.576,8,8,8h160c4.424,0,8-3.576,8-8v-24h40c4.424,0,8-3.576,8-8v-24h32v24
			c0,4.424,3.576,8,8,8s8-3.576,8-8V168C368,163.576,364.424,160,360,160z M48,256H16v-48h32V256z M160,48h48v80h-48V48z M304,288
			h-40c-4.424,0-8,3.576-8,8v24H112v-24c0-4.424-3.576-8-8-8H64V176h40c4.424,0,8-3.576,8-8v-24h144v24c0,4.424,3.576,8,8,8h40V288z
			 M352,256h-32v-48h32V256z"/>
	</g>
</g>
<g>
	<g>
		<path d="M223.496,229.232C222.344,226.088,219.352,224,216,224h-42.376l39.576-33.928c3.36-2.872,3.752-7.92,0.864-11.272
			c-2.864-3.368-7.912-3.744-11.272-0.864l-56,48c-2.544,2.168-3.464,5.704-2.296,8.84c1.16,3.136,4.152,5.224,7.504,5.224h42.376
			L154.8,273.928c-3.36,2.872-3.752,7.92-0.864,11.272c1.568,1.856,3.816,2.8,6.064,2.8c1.84,0,3.696-0.632,5.2-1.928l56-48
			C223.744,235.904,224.664,232.368,223.496,229.232z"/>
	</g>
</g>
<g>
</g>
<g>
</g>
<g>
</g>
<g>
</g>
<g>
</g>
<g>
</g>
<g>
</g>
<g>
</g>
<g>
</g>
<g>
</g>
<g>
</g>
<g>
</g>
<g>
</g>
<g>
</g>
<g>
</g>
</svg>
